<svg width="94" height="94" viewBox="0 0 94 94" fill="none" xmlns="http://www.w3.org/2000/svg">
<path d="M83.0135 76.9198C87.8306 71.124 91.1809 64.2534 92.781 56.889C94.3812 49.5246 94.1841 41.8832 92.2064 34.6111C90.2287 27.339 86.5286 20.6502 81.4191 15.1105C76.3096 9.57086 69.9411 5.34331 62.8522 2.78548C55.7633 0.227655 48.1627 -0.58519 40.6932 0.415709C33.2238 1.41661 26.1053 4.2018 19.9399 8.53568C13.7745 12.8696 8.7436 18.6246 5.27281 25.314C1.80201 32.0034 -0.00658296 39.4304 1.80042e-05 46.9666C0.00255102 57.9221 3.86322 68.5268 10.9046 76.9198L10.8375 76.9768C11.0723 77.2585 11.3406 77.5 11.5821 77.7785C11.884 78.1239 12.2094 78.4493 12.5213 78.7847C13.4605 79.8044 14.4265 80.7838 15.4395 81.7029C15.7481 81.9846 16.0667 82.2463 16.3787 82.5146C17.452 83.4404 18.5555 84.3192 19.6993 85.1376C19.8469 85.2382 19.9811 85.369 20.1287 85.473V85.4328C27.9846 90.9611 37.3563 93.9281 46.9624 93.9281C56.5685 93.9281 65.9402 90.9611 73.7962 85.4328V85.473C73.9437 85.369 74.0745 85.2382 74.2255 85.1376C75.3659 84.3158 76.4728 83.4404 77.5462 82.5146C77.8581 82.2463 78.1768 81.9813 78.4853 81.7029C79.4983 80.7805 80.4643 79.8044 81.4035 78.7847C81.7155 78.4493 82.0375 78.1239 82.3427 77.7785C82.5808 77.5 82.8525 77.2585 83.0873 76.9734L83.0135 76.9198ZM46.9591 20.1329C49.9444 20.1329 52.8626 21.0181 55.3448 22.6767C57.827 24.3352 59.7616 26.6926 60.9041 29.4506C62.0465 32.2087 62.3454 35.2436 61.763 38.1715C61.1806 41.0995 59.743 43.789 57.6321 45.8999C55.5212 48.0108 52.8317 49.4484 49.9037 50.0308C46.9758 50.6132 43.9409 50.3143 41.1828 49.1719C38.4248 48.0294 36.0674 46.0948 34.4089 43.6126C32.7503 41.1304 31.8651 38.2122 31.8651 35.2268C31.8651 31.2237 33.4553 27.3845 36.286 24.5538C39.1167 21.7231 42.9559 20.1329 46.9591 20.1329ZM20.1488 76.9198C20.207 72.5156 21.9968 68.3114 25.131 65.2167C28.2652 62.122 32.4918 60.3857 36.8964 60.3835H57.0217C61.4263 60.3857 65.6529 62.122 68.7871 65.2167C71.9213 68.3114 73.7111 72.5156 73.7693 76.9198C66.413 83.5488 56.8616 87.2175 46.9591 87.2175C37.0565 87.2175 27.5051 83.5488 20.1488 76.9198Z" fill="#D2D2D2"/>
</svg>
